<svg xmlns="http://www.w3.org/2000/svg" width="1600" height="900" viewBox="0 0 1600 900" role="img" aria-labelledby="title desc">
<title id="title">JavaFX Matrix Solver</title><desc id="desc">MVC-style separation between views, controllers, mathematical services and formatting.</desc>
<defs><linearGradient id="bg" x1="0" x2="1" y1="0" y2="1"><stop offset="0" stop-color="#0a1322"/><stop offset="1" stop-color="#13283a"/></linearGradient><filter id="shadow" x="-20%" y="-20%" width="140%" height="140%"><feDropShadow dx="0" dy="12" stdDeviation="18" flood-color="#000" flood-opacity=".28"/></filter><marker id="arrow" viewBox="0 0 10 10" refX="8" refY="5" markerWidth="8" markerHeight="8" orient="auto-start-reverse"><path d="M 0 0 L 10 5 L 0 10 z" fill="#78ddc9"/></marker></defs>
<rect width="1600" height="900" rx="34" fill="url(#bg)"/>
<circle cx="1450" cy="60" r="280" fill="#78ddc9" opacity=".07"/>
<text x="90" y="105" fill="#78ddc9" font-family="Arial,sans-serif" font-size="24" font-weight="700" letter-spacing="4">PROJECT ARCHITECTURE</text>
<text x="90" y="175" fill="#f5f7fb" font-family="Arial,sans-serif" font-size="52" font-weight="700">JavaFX Matrix Solver</text>
<text x="90" y="222" fill="#aeb8c9" font-family="Arial,sans-serif" font-size="24">MVC-style separation between views, controllers, mathematical services and formatting.</text><line x1="330" y1="405" x2="400" y2="405" stroke="#78ddc9" stroke-width="4" marker-end="url(#arrow)" opacity=".85"/><line x1="650" y1="390" x2="720" y2="285" stroke="#78ddc9" stroke-width="4" marker-end="url(#arrow)" opacity=".85"/><rect x="620.0" y="320.5" width="130" height="34" rx="17" fill="#09111f" stroke="#284257"/><text x="685.0" y="344.5" text-anchor="middle" fill="#aeb8c9" font-family="Arial,sans-serif" font-size="16">matrix</text><line x1="650" y1="420" x2="720" y2="565" stroke="#78ddc9" stroke-width="4" marker-end="url(#arrow)" opacity=".85"/><rect x="620.0" y="475.5" width="130" height="34" rx="17" fill="#09111f" stroke="#284257"/><text x="685.0" y="499.5" text-anchor="middle" fill="#aeb8c9" font-family="Arial,sans-serif" font-size="16">scalar</text><line x1="980" y1="285" x2="1060" y2="385" stroke="#78ddc9" stroke-width="4" marker-end="url(#arrow)" opacity=".85"/><rect x="955.0" y="318.0" width="130" height="34" rx="17" fill="#09111f" stroke="#284257"/><text x="1020.0" y="342.0" text-anchor="middle" fill="#aeb8c9" font-family="Arial,sans-serif" font-size="16">result</text><line x1="980" y1="565" x2="1060" y2="425" stroke="#78ddc9" stroke-width="4" marker-end="url(#arrow)" opacity=".85"/><rect x="955.0" y="478.0" width="130" height="34" rx="17" fill="#09111f" stroke="#284257"/><text x="1020.0" y="502.0" text-anchor="middle" fill="#aeb8c9" font-family="Arial,sans-serif" font-size="16">value</text><line x1="1310" y1="405" x2="1390" y2="405" stroke="#78ddc9" stroke-width="4" marker-end="url(#arrow)" opacity=".85"/><rect x="1285.0" y="388.0" width="130" height="34" rx="17" fill="#09111f" stroke="#284257"/><text x="1350.0" y="412.0" text-anchor="middle" fill="#aeb8c9" font-family="Arial,sans-serif" font-size="16">display</text><g filter="url(#shadow)"><rect x="80" y="340" width="250" height="130" rx="22" fill="#16243a" stroke="#36556a" stroke-width="2"/><rect x="80" y="340" width="8" height="130" rx="4" fill="#78ddc9"/><text x="112" y="388" fill="#f5f7fb" font-family="Arial,sans-serif" font-size="25" font-weight="700">JavaFX views</text><text x="112" y="422" fill="#aeb8c9" font-family="Arial,sans-serif" font-size="17">FXML + reusable controls</text></g><g filter="url(#shadow)"><rect x="400" y="340" width="250" height="130" rx="22" fill="#16243a" stroke="#36556a" stroke-width="2"/><rect x="400" y="340" width="8" height="130" rx="4" fill="#78ddc9"/><text x="432" y="388" fill="#f5f7fb" font-family="Arial,sans-serif" font-size="25" font-weight="700">Controllers</text><text x="432" y="422" fill="#aeb8c9" font-family="Arial,sans-serif" font-size="17">Input + navigation</text></g><g filter="url(#shadow)"><rect x="720" y="220" width="260" height="130" rx="22" fill="#16243a" stroke="#36556a" stroke-width="2"/><rect x="720" y="220" width="8" height="130" rx="4" fill="#78ddc9"/><text x="752" y="268" fill="#f5f7fb" font-family="Arial,sans-serif" font-size="25" font-weight="700">Matrix services</text><text x="752" y="302" fill="#aeb8c9" font-family="Arial,sans-serif" font-size="17">Inverse, RREF, systems</text></g><g filter="url(#shadow)"><rect x="720" y="500" width="260" height="130" rx="22" fill="#16243a" stroke="#36556a" stroke-width="2"/><rect x="720" y="500" width="8" height="130" rx="4" fill="#78ddc9"/><text x="752" y="548" fill="#f5f7fb" font-family="Arial,sans-serif" font-size="25" font-weight="700">Expression parser</text><text x="752" y="582" fill="#aeb8c9" font-family="Arial,sans-serif" font-size="17">Scalar input evaluation</text></g><g filter="url(#shadow)"><rect x="1060" y="340" width="250" height="130" rx="22" fill="#16243a" stroke="#36556a" stroke-width="2"/><rect x="1060" y="340" width="8" height="130" rx="4" fill="#78ddc9"/><text x="1092" y="388" fill="#f5f7fb" font-family="Arial,sans-serif" font-size="25" font-weight="700">Result formatter</text><text x="1092" y="422" fill="#aeb8c9" font-family="Arial,sans-serif" font-size="17">Readable mathematical output</text></g><g filter="url(#shadow)"><rect x="1390" y="340" width="150" height="130" rx="22" fill="#16243a" stroke="#36556a" stroke-width="2"/><rect x="1390" y="340" width="8" height="130" rx="4" fill="#78ddc9"/><text x="1422" y="388" fill="#f5f7fb" font-family="Arial,sans-serif" font-size="25" font-weight="700">UI result</text><text x="1422" y="422" fill="#aeb8c9" font-family="Arial,sans-serif" font-size="17">Popup / grid</text></g><text x="90" y="840" fill="#748198" font-family="Arial,sans-serif" font-size="19">Quality focus: validation, exception handling and 50+ JUnit tests across operations and edge cases.</text></svg>